HIERARCHY
ROOT Hips
{
	OFFSET 0.000000 0.000000 0.000000
	CHANNELS 6 Xposition Yposition Zposition Zrotation Yrotation Xrotation 
	JOINT LHipJoint
	{
		OFFSET 0.000000 0.000000 0.000000
		CHANNELS 3 Zrotation Yrotation Xrotation
		JOINT LeftUpLeg
		{
			OFFSET 1.363060 -1.794630 0.839290
			CHANNELS 3 Zrotation Yrotation Xrotation
			JOINT LeftLeg
			{
				OFFSET 2.448110 -6.726130 0.000000
				CHANNELS 3 Zrotation Yrotation Xrotation
				JOINT LeftFoot
				{
					OFFSET 2.562200 -7.039590 0.000000
					CHANNELS 3 Zrotation Yrotation Xrotation
					JOINT LeftToeBase
					{
						OFFSET 0.157640 -0.433110 2.322550
						CHANNELS 3 Zrotation Yrotation Xrotation
						End Site
						{
							OFFSET 0.000000 0.000000 0.000000
						}
					}
				}
			}
		}
	}
	JOINT RHipJoint
	{
		OFFSET 0.000000 0.000000 0.000000
		CHANNELS 3 Zrotation Yrotation Xrotation
		JOINT RightUpLeg
		{
			OFFSET -1.305520 -1.794630 0.839290
			CHANNELS 3 Zrotation Yrotation Xrotation
			JOINT RightLeg
			{
				OFFSET -2.542530 -6.985550 0.000000
				CHANNELS 3 Zrotation Yrotation Xrotation
				JOINT RightFoot
				{
					OFFSET -2.568260 -7.056230 0.000000
					CHANNELS 3 Zrotation Yrotation Xrotation
					JOINT RightToeBase
					{
						OFFSET -0.164730 -0.452590 2.363150
						CHANNELS 3 Zrotation Yrotation Xrotation
						End Site
						{
							OFFSET 0.000000 0.000000 0.000000
						}
					}
				}
			}
		}
	}
}
MOTION
Frames: 22
Frame Time: 0.008333
-10.689468 15.404001 -0.502755 -30.651639 85.794655 -3.926828 -11.943728 1.781803 -5.703322 -6.119682 15.341654 -20.441958 -1.548094 3.250325 52.805154 1.105024 5.481293 -15.218941 -0.912899 -0.000000 -73.885500 7.787005 0.665166 -1.665696 21.223192 -0.973539 -71.758036 2.718208 -5.712812 51.486533 0.129914 3.442677 -8.437754 0.022500 0.000000 -17.246900
-10.478062 15.379371 -0.486880 -29.557977 86.060771 -2.989138 -12.004656 1.828330 -5.619230 -5.913167 14.803340 -19.677395 -1.344011 3.257010 53.172528 1.053548 5.444034 -13.468700 -0.709201 -0.000000 -74.831200 7.838146 0.775429 -1.755532 20.440135 -0.920992 -71.639330 2.417415 -5.815864 53.492363 -0.033116 2.827354 -9.363824 0.000000 0.000000 -11.201100
-10.270073 15.358470 -0.473257 -29.607772 86.321059 -3.157947 -12.061478 1.852883 -5.529756 -5.675108 14.188838 -19.083933 -1.122117 3.277601 53.710009 1.017181 5.446507 -11.633655 -0.510300 -0.000000 -75.104200 7.879804 0.867146 -1.851335 19.780074 -0.849147 -71.454316 2.152164 -5.903486 55.367694 -0.215070 2.132716 -10.428955 -0.004400 0.000000 -7.168600
-10.065550 15.341769 -0.461701 -30.936463 86.592780 -4.557947 -12.119189 1.851850 -5.429407 -5.420928 13.488770 -18.682803 -0.887208 3.306479 54.418277 1.001018 5.509256 -9.786902 -0.323200 0.000000 -74.524499 7.907013 0.932608 -1.948820 19.248076 -0.769397 -71.211692 1.926400 -5.977026 57.072056 -0.412686 1.376479 -11.602503 0.017800 -0.000000 -4.956700
-9.864922 15.329535 -0.452174 -33.656812 86.889366 -7.317983 -12.184704 1.820580 -5.322624 -5.154853 12.716771 -18.452127 -0.644927 3.338675 55.287530 1.005556 5.632976 -8.008082 -0.150900 0.000000 -72.860300 7.914670 0.964759 -2.057558 18.847643 -0.722162 -70.898641 1.742876 -6.040413 58.592530 -0.620267 0.594848 -12.873481 0.073501 0.000000 -4.062100
-9.667834 15.321704 -0.444014 -37.840653 87.227912 -11.493301 -12.264270 1.757479 -5.201528 -4.907299 11.866194 -18.419792 -0.401537 3.368468 56.313558 1.033773 5.851937 -6.401954 0.002800 0.000000 -70.079500 7.897793 0.958839 -2.165954 18.554145 -0.714656 -70.545919 1.598476 -6.093859 59.903132 -0.833580 -0.197769 -14.173442 0.164400 -0.000000 -4.370200
-9.474331 15.318116 -0.436790 -43.675276 87.614222 -17.279689 -12.369393 1.662064 -5.068356 -4.692151 10.958283 -18.574963 -0.163765 3.394197 57.481132 1.083454 6.175931 -5.058846 0.137900 0.000001 -66.175200 7.848930 0.913096 -2.276393 18.346707 -0.771458 -70.157758 1.488365 -6.137262 61.004423 -1.045522 -0.972891 -15.448166 0.287300 0.000000 -5.622300
-9.284288 15.318424 -0.429919 -51.364404 88.042999 -24.885059 -12.512716 1.540557 -4.924108 -4.530671 10.018779 -18.912391 0.060309 3.419178 58.768642 1.152071 6.617938 -4.054035 0.254000 -0.000000 -61.285400 7.760900 0.834744 -2.389286 18.193913 -0.905033 -69.745054 1.404827 -6.166739 61.907292 -1.248522 -1.704136 -16.643518 0.433700 0.000001 -7.585600
-9.097575 15.322226 -0.422965 -61.318808 88.491293 -34.723986 -12.705800 1.406445 -4.770362 -4.434729 9.083143 -19.428036 0.261330 3.453759 60.147347 1.236703 7.183134 -3.428711 0.349600 0.000000 -55.721600 7.628480 0.740925 -2.507024 18.071372 -1.113383 -69.313246 1.339273 -6.174395 62.632153 -1.435421 -2.367360 -17.719860 0.592200 0.000000 -9.978200
-8.914118 15.329091 -0.415524 -73.840453 88.914229 -47.101471 -12.943108 1.285378 -4.610631 -4.410572 8.192259 -20.117013 0.428366 3.515712 61.582085 1.335246 7.870937 -3.187191 0.420801 -0.000000 -49.881300 7.461965 0.666218 -2.633553 17.960957 -1.380293 -68.863206 1.283578 -6.150661 63.207845 -1.600228 -2.941205 -18.661039 0.751400 -0.000000 -12.450700
-8.733763 15.338588 -0.407306 -88.809781 89.252772 -61.899142 -13.188224 1.207300 -4.451412 -4.443894 7.385469 -20.975224 0.553846 3.622468 63.039914 1.446312 8.671678 -3.299371 0.462000 -0.000000 -44.204100 7.297108 0.652359 -2.770600 17.863342 -1.678910 -68.392300 1.233423 -6.091756 63.662054 -1.739234 -3.413350 -19.467470 0.901801 0.000000 -14.692000
-8.556525 15.350381 -0.398196 -105.083919 89.456130 -77.977606 -13.377016 1.186431 -4.302615 -4.502995 6.685937 -21.992503 0.641063 3.775242 64.498661 1.568732 9.566157 -3.719890 0.465700 -0.000000 -39.007000 7.189471 0.722479 -2.913686 17.791852 -1.992088 -67.902766 1.191543 -6.009699 64.016367 -1.851382 -3.780810 -20.157213 1.037600 -0.000000 -16.435600
-8.382302 15.364173 -0.388201 -120.735149 89.499577 -93.414101 -13.460651 1.202921 -4.172286 -4.553248 6.091205 -23.150320 0.706122 3.950986 65.947795 1.701129 10.527100 -4.394711 0.424100 0.000000 -34.497500 7.176426 0.855199 -3.052129 17.758139 -2.325025 -67.409973 1.164566 -5.929758 64.284637 -1.938408 -4.053778 -20.745588 1.155500 -0.000000 -17.634400
-8.211143 15.379769 -0.377533 -134.143408 89.388123 -106.595907 -13.441135 1.216434 -4.063169 -4.583593 5.584418 -24.424940 0.766472 4.118365 67.378861 1.841374 11.521337 -5.277775 0.329200 -0.000001 -30.683900 7.249641 1.000663 -3.177561 17.757108 -2.696877 -66.934753 1.156485 -5.873618 64.483061 -2.004092 -4.247961 -21.251361 1.254900 0.000000 -18.355400
-8.043086 15.397093 -0.366338 -144.801301 89.155276 -117.023756 -13.356612 1.196705 -3.973984 -4.608000 5.150985 -25.789036 0.831104 4.258549 68.767277 1.987582 12.520032 -6.287394 0.183300 0.000001 -27.830800 7.371790 1.120881 -3.290271 17.769858 -3.118922 -66.487582 1.165146 -5.846884 64.630484 -2.052773 -4.379773 -21.691817 1.337600 0.000000 -18.753101
-7.877880 15.415931 -0.355551 -152.795490 88.834945 -124.779831 -13.256623 1.130445 -3.898290 -4.624640 4.789010 -27.248451 0.897217 4.372309 70.107649 2.133451 13.470110 -7.442171 -0.026200 -0.000000 -25.251900 7.496899 1.194760 -3.390378 17.804847 -3.572220 -66.076082 1.185948 -5.841551 64.736860 -2.091011 -4.473913 -22.077176 1.407900 0.000000 -19.012900
-7.715862 15.436391 -0.344780 -158.822062 88.485429 -130.574608 -13.154540 1.026979 -3.839239 -4.666424 4.495852 -28.763709 0.961022 4.465460 71.356092 2.276644 14.352857 -8.625329 -0.278201 0.000000 -23.498400 7.614064 1.236102 -3.489626 17.835730 -4.054836 -65.677976 1.213643 -5.848751 64.815907 -2.120927 -4.537943 -22.426102 1.468701 0.000000 -19.291300
-7.556682 15.458292 -0.334864 -163.199512 88.132035 -134.719481 -13.067464 0.891722 -3.790767 -4.720736 4.267672 -30.344478 1.017424 4.547695 72.507245 2.410535 15.124318 -9.838349 -0.570300 0.000000 -22.078000 7.706637 1.247346 -3.588691 17.884519 -4.539801 -65.288463 1.245856 -5.858808 64.863397 -2.147582 -4.591828 -22.742738 1.524100 -0.000000 -19.731900
-7.400268 15.481569 -0.326094 -166.310787 87.797747 -137.599317 -12.995546 0.733140 -3.750718 -4.788055 4.094345 -31.979624 1.064265 4.624991 73.546103 2.530366 15.759019 -11.031223 -0.883801 0.000000 -21.021300 7.773722 1.237308 -3.691374 17.956111 -5.015748 -64.893277 1.281337 -5.865981 64.874519 -2.173002 -4.644611 -23.029916 1.576500 0.000000 -20.446100
-7.246577 15.506177 -0.318251 -168.567228 87.497961 -139.632388 -12.929735 0.559594 -3.720013 -4.879347 3.963175 -33.648306 1.100024 4.699524 74.461771 2.632260 16.240081 -12.175790 -1.201900 0.000000 -20.221900 7.823405 1.215466 -3.801737 18.040998 -5.484389 -64.476544 1.319982 -5.868658 64.845627 -2.196711 -4.694983 -23.290812 1.625600 0.000000 -21.470200
-7.095260 15.531881 -0.311603 -170.155361 87.234252 -141.002768 -12.868085 0.374902 -3.694015 -4.990477 3.856104 -35.348931 1.124830 4.772875 75.256546 2.713285 16.556247 -13.260357 -1.510600 0.000000 -19.531700 7.856860 1.184024 -3.919349 18.143111 -5.940968 -64.033628 1.362054 -5.865071 64.769516 -2.218330 -4.742666 -23.519046 1.670700 0.000000 -22.814400
-6.946086 15.558486 -0.305973 -171.305358 87.006045 -141.942824 -12.804120 0.183260 -3.670565 -5.127944 3.755406 -37.072883 1.138987 4.844434 75.933673 2.772625 16.709170 -14.281222 -1.798800 0.000000 -18.823900 7.880266 1.147103 -4.044430 18.252511 -6.389845 -63.560361 1.408102 -5.855890 64.645026 -2.235795 -4.778404 -23.715030 1.709700 -0.000000 -24.377600
